<svg xmlns="http://www.w3.org/2000/svg" width="310.42" height="310.42"><path d="M273.587 214.965c49.1-49.1 49.1-129.02 0-178.132s-129.02-49.1-178.13 0C53.793 78.497 47.483 140.462 76.5 188.85c0 0 2.085 3.498-.73 6.312l-64.263 64.263c-12.8 12.8-15.836 30.675-4.493 42.02l1.953 1.95c11.343 11.345 29.23 8.3 42.02-4.5l64.128-64.128c2.95-2.95 6.448-.866 6.448-.866 48.387 29.026 110.352 22.717 152.016-18.947zM118.7 191.7c-36.288-36.288-36.287-95.332.001-131.62s95.332-36.288 131.62 0 36.288 95.332 0 131.62-95.33 36.286-131.62 0zm8.04-73.276a12.98 12.98 0 0 1-5.061-1.031c-6.6-2.798-9.704-10.426-6.906-17.038 17.586-41.56 65.703-61.062 107.26-43.476 6.6 2.798 9.704 10.426 6.906 17.038s-10.425 9.703-17.04 6.906c-28.354-11.998-61.186 1.3-73.183 29.663-2.1 4.96-6.913 7.938-11.978 7.938z"/></svg>